<?xml version="1.0" encoding="UTF-8" standalone="no"?><!-- Generator: Gravit.io --><svg xmlns="http://www.w3.org/2000/svg" xmlns:xlink="http://www.w3.org/1999/xlink" style="isolation:isolate" viewBox="0 0 300 300" width="300pt" height="300pt"><defs><clipPath id="_clipPath_zp90OHN9Ohe9XQIq4KMga5P6skinMau7"><rect width="300" height="300"/></clipPath></defs><g clip-path="url(#_clipPath_zp90OHN9Ohe9XQIq4KMga5P6skinMau7)"><rect width="300" height="300" style="fill:rgb(46,46,46)"/><g><path d=" M 133.523 141.558 C 122.829 132.334 121.843 116.397 131.321 105.99 C 140.799 95.584 157.176 94.623 167.869 103.847 C 178.563 113.071 179.55 129.008 170.072 139.414 C 160.593 149.821 144.217 150.781 133.523 141.558 Z  M 137.339 137.367 C 135.168 135.497 133.439 133.193 132.268 130.612 C 131.143 128.118 130.562 125.419 130.565 122.692 C 130.562 120.36 130.988 118.045 131.822 115.861 C 132.688 113.597 133.979 111.511 135.628 109.703 C 137.547 107.592 139.914 105.909 142.566 104.77 C 145.133 103.675 147.906 103.11 150.708 103.11 C 153.104 103.11 155.48 103.524 157.727 104.333 C 160.051 105.179 162.197 106.433 164.053 108.037 C 166.225 109.907 167.954 112.211 169.122 114.789 C 170.249 117.289 170.83 119.985 170.828 122.715 C 170.83 125.044 170.405 127.359 169.57 129.543 C 168.705 131.807 167.413 133.896 165.765 135.702 C 163.846 137.812 161.478 139.495 158.826 140.634 C 156.26 141.732 153.487 142.294 150.685 142.294 C 148.288 142.294 145.912 141.88 143.665 141.071 C 141.341 140.226 139.195 138.971 137.339 137.367 Z  M 135.203 98.944 Q 145.179 86.685 164.457 90.211 C 180.418 93.13 216.896 124.005 258.896 125.188 L 179.527 123.094 C 179.873 107.697 167.339 94.895 151.505 94.499 C 145.51 94.35 139.893 96 135.203 98.944 Z  M 166.575 146.332 Q 156.599 158.591 137.322 155.065 C 121.36 152.145 84.883 121.271 42.882 120.088 L 122.251 122.181 C 121.906 137.578 134.439 150.38 150.273 150.776 C 156.268 150.926 161.885 149.276 166.575 146.332 Z  M 161.494 162.207 C 200.81 142.791 243.707 127.057 285.148 126.104 L 178.93 128.282 L 178.93 128.282 C 176.364 141.321 170.077 152.984 161.24 161.987 L 161.494 162.207 L 161.494 162.207 Z  M 140.025 82.249 C 100.708 101.664 57.812 117.398 16.371 118.351 L 122.589 116.173 L 122.589 116.173 C 125.155 103.134 131.442 91.471 140.279 82.468 L 140.025 82.249 L 140.025 82.249 Z " fill-rule="evenodd" fill="rgb(255,213,28)"/></g><path d=" M 204.757 194.539 L 199.859 199.232 L 213.605 199.232 L 213.605 194.539 L 204.757 194.539 Z  M 202.706 181.162 L 197.656 181.162 L 197.656 195.98 L 202.706 191.102 L 202.706 181.162 Z  M 202.706 173.365 L 197.656 173.365 L 197.656 177.54 L 202.706 177.54 L 202.706 173.365 Z  M 227.275 173.143 C 219.642 173.143 214.364 178.908 214.364 186.335 C 214.364 193.763 219.642 199.528 227.275 199.528 C 234.908 199.528 240.148 193.763 240.148 186.335 C 240.148 178.908 234.908 173.143 227.275 173.143 Z  M 227.275 194.613 C 222.414 194.613 219.529 191.065 219.529 186.335 C 219.529 181.605 222.414 178.058 227.275 178.058 C 232.098 178.058 234.984 181.605 234.984 186.335 C 234.984 191.065 232.098 194.613 227.275 194.613 Z  M 227.275 183.822 C 225.832 183.822 224.693 184.968 224.693 186.335 C 224.693 187.703 225.832 188.848 227.275 188.848 C 228.68 188.848 229.819 187.703 229.819 186.335 C 229.819 184.968 228.68 183.822 227.275 183.822 Z  M 255.337 173.143 C 247.704 173.143 242.426 178.908 242.426 186.335 C 242.426 193.763 247.704 199.528 255.337 199.528 C 262.97 199.528 268.21 193.763 268.21 186.335 C 268.21 178.908 262.97 173.143 255.337 173.143 Z  M 255.337 194.613 C 250.476 194.613 247.591 191.065 247.591 186.335 C 247.591 181.605 250.476 178.058 255.337 178.058 C 260.16 178.058 263.046 181.605 263.046 186.335 C 263.046 191.065 260.16 194.613 255.337 194.613 Z  M 255.337 183.822 C 253.894 183.822 252.755 184.968 252.755 186.335 C 252.755 187.703 253.894 188.848 255.337 188.848 C 256.742 188.848 257.881 187.703 257.881 186.335 C 257.881 184.968 256.742 183.822 255.337 183.822 Z  M 281.273 173.365 L 271.438 173.365 L 271.438 178.095 L 281.159 178.095 C 283.703 178.095 285.298 179.647 285.298 181.864 C 285.298 184.081 283.703 185.67 281.159 185.67 L 271.438 185.67 L 271.438 199.232 L 276.488 199.232 L 276.488 190.363 L 281.273 190.363 C 287.196 190.363 290.5 186.594 290.5 181.864 C 290.5 177.134 287.196 173.365 281.273 173.365 Z  M 35.284 186.335 C 35.284 178.908 30.043 173.143 22.411 173.143 C 14.778 173.143 9.5 178.908 9.5 186.335 C 9.5 192.876 13.563 198.087 19.715 199.269 L 19.715 204.775 L 24.803 204.775 L 24.803 199.306 C 31.107 198.271 35.284 192.95 35.284 186.335 Z  M 22.411 194.613 C 17.55 194.613 14.664 191.065 14.664 186.335 C 14.664 181.605 17.55 178.058 22.411 178.058 C 27.233 178.058 30.119 181.605 30.119 186.335 C 30.119 191.065 27.233 194.613 22.411 194.613 Z  M 53.625 188.959 C 53.625 192.47 51.65 194.613 48.498 194.613 C 45.309 194.613 43.372 192.47 43.372 188.959 L 43.372 181.162 L 38.321 181.162 L 38.321 189.07 C 38.321 195.537 42.309 199.528 48.498 199.528 C 54.156 199.528 57.991 196.165 58.599 190.585 L 53.625 188.479 L 53.625 188.959 Z  M 53.625 173.365 L 53.625 184.081 L 58.675 186.224 L 58.675 173.365 L 53.625 173.365 Z  M 43.372 173.365 L 38.321 173.365 L 38.321 177.54 L 43.372 177.54 L 43.372 173.365 Z  M 74.7 173.365 L 69.535 173.365 L 59.814 199.232 L 65.548 199.232 L 72.117 180.755 L 78.687 199.232 L 84.421 199.232 L 74.7 173.365 Z  M 102.534 187.887 L 87.231 173.143 L 86.889 173.143 L 86.889 199.232 L 91.939 199.232 L 91.939 184.746 L 107.242 199.528 L 107.584 199.528 L 107.584 173.365 L 102.534 173.365 L 102.534 187.887 Z  M 110.774 173.365 L 110.774 178.095 L 130.14 178.095 L 130.14 173.365 L 110.774 173.365 Z  M 117.951 199.232 L 123.001 199.232 L 123.001 181.938 L 117.951 181.938 L 117.951 199.232 Z  M 148.481 188.959 C 148.481 192.47 146.506 194.613 143.355 194.613 C 140.165 194.613 138.228 192.47 138.228 188.959 L 138.228 181.162 L 133.178 181.162 L 133.178 189.07 C 133.178 195.537 137.165 199.528 143.355 199.528 C 149.013 199.528 152.848 196.165 153.456 190.585 L 148.481 188.479 L 148.481 188.959 Z  M 148.481 173.365 L 148.481 184.081 L 153.531 186.224 L 153.531 173.365 L 148.481 173.365 Z  M 138.228 173.365 L 133.178 173.365 L 133.178 177.54 L 138.228 177.54 L 138.228 173.365 Z  M 183.264 173.143 L 170.543 186.816 L 157.822 173.143 L 157.519 173.143 L 157.519 199.232 L 162.569 199.232 L 162.569 185.264 L 170.354 193.43 L 170.695 193.43 L 178.556 185.264 L 178.556 199.232 L 183.606 199.232 L 183.606 173.143 L 183.264 173.143 Z " fill="rgb(255,255,255)"/><path d=" M 145.133 209.823 L 145.133 210.215 L 150.414 210.215 L 150.414 209.823 L 145.133 209.823 Z  M 145.133 213.552 L 145.133 217.662 L 145.535 217.662 L 145.535 213.933 L 149.643 213.933 L 149.643 213.552 L 145.133 213.552 Z  M 157.641 217.662 L 155.788 214.47 C 156.801 214.168 157.48 213.339 157.48 212.22 C 157.48 210.775 156.317 209.823 154.844 209.823 L 151.968 209.823 L 151.968 210.215 L 154.844 210.215 C 156.099 210.215 157.054 210.965 157.054 212.22 C 157.054 213.463 156.064 214.224 154.844 214.224 L 151.968 214.224 L 151.968 217.662 L 152.359 217.662 L 152.359 214.616 L 154.844 214.616 C 155.029 214.616 155.213 214.594 155.385 214.571 L 157.18 217.662 L 157.641 217.662 Z  M 162.922 209.756 C 160.678 209.756 159.021 211.548 159.021 213.754 C 159.021 215.949 160.678 217.74 162.922 217.74 C 165.178 217.74 166.835 215.949 166.835 213.754 C 166.835 211.548 165.178 209.756 162.922 209.756 Z  M 162.922 217.36 C 160.897 217.36 159.459 215.736 159.459 213.754 C 159.459 211.76 160.897 210.148 162.922 210.148 C 164.959 210.148 166.397 211.76 166.397 213.754 C 166.397 215.736 164.959 217.36 162.922 217.36 Z  M 162.922 213.306 C 162.669 213.306 162.462 213.507 162.462 213.754 C 162.462 214 162.669 214.202 162.922 214.202 C 163.175 214.202 163.383 214 163.383 213.754 C 163.383 213.507 163.175 213.306 162.922 213.306 Z  M 174.349 216.721 L 168.71 209.745 L 168.618 209.745 L 168.618 217.662 L 169.021 217.662 L 169.021 210.775 L 174.648 217.74 L 174.751 217.74 L 174.751 209.823 L 174.349 209.823 L 174.349 216.721 Z  M 178.733 217.662 L 179.124 217.662 L 179.124 211.917 L 178.733 211.917 L 178.733 217.662 Z  M 176.017 209.823 L 176.017 210.215 L 181.84 210.215 L 181.84 209.823 L 176.017 209.823 Z  M 183.106 217.662 L 183.497 217.662 L 183.497 212.052 L 183.106 212.052 L 183.106 217.662 Z  M 183.106 209.823 L 183.106 211.01 L 183.497 211.01 L 183.497 209.823 L 183.106 209.823 Z  M 190.965 209.823 L 185.683 209.823 L 185.683 210.215 L 190.965 210.215 L 190.965 209.823 Z  M 190.608 213.552 L 185.683 213.552 L 185.683 213.933 L 190.608 213.933 L 190.608 213.552 Z  M 185.683 217.27 L 185.683 217.662 L 191.034 217.662 L 191.034 217.27 L 185.683 217.27 Z  M 198.594 217.662 L 196.741 214.47 C 197.754 214.168 198.433 213.339 198.433 212.22 C 198.433 210.775 197.271 209.823 195.798 209.823 L 192.921 209.823 L 192.921 210.215 L 195.798 210.215 C 197.052 210.215 198.007 210.965 198.007 212.22 C 198.007 213.463 197.017 214.224 195.798 214.224 L 192.921 214.224 L 192.921 217.662 L 193.312 217.662 L 193.312 214.616 L 195.798 214.616 C 195.982 214.616 196.166 214.594 196.339 214.571 L 198.134 217.662 L 198.594 217.662 Z  M 200.182 215.837 L 199.802 215.96 C 199.986 216.542 200.458 217.08 201.148 217.393 L 201.321 217.046 C 200.723 216.766 200.331 216.329 200.182 215.837 Z  M 202.897 213.519 C 201.609 213.227 200.389 212.925 200.389 211.895 C 200.389 210.842 201.31 210.137 202.621 210.137 C 202.782 210.137 202.932 210.137 203.082 210.159 L 203.323 209.801 C 203.093 209.767 202.863 209.745 202.621 209.745 C 201.125 209.745 199.998 210.607 199.998 211.895 C 199.998 212.936 200.941 213.519 202.805 213.899 C 204.117 214.179 205.337 214.515 205.337 215.59 C 205.337 216.822 204.14 217.36 202.909 217.36 C 202.897 217.36 202.886 217.36 202.874 217.36 L 202.679 217.751 C 202.748 217.751 202.828 217.751 202.909 217.751 C 205.13 217.751 205.74 216.43 205.74 215.59 C 205.74 214.694 205.222 214.034 202.897 213.519 Z  M 98.817 213.44 C 99.542 213.171 100.014 212.578 100.014 211.749 C 100.014 210.574 99.105 209.823 97.827 209.823 L 94.951 209.823 L 94.951 210.204 L 97.827 210.204 C 98.886 210.204 99.577 210.741 99.577 211.749 C 99.577 212.757 98.829 213.295 97.827 213.295 L 94.951 213.295 L 94.951 217.662 L 98.023 217.662 C 99.335 217.662 100.451 216.956 100.451 215.489 C 100.451 214.336 99.761 213.664 98.817 213.44 Z  M 98.023 217.27 L 95.353 217.27 L 95.353 213.675 L 98.023 213.675 C 99.116 213.675 100.025 214.258 100.025 215.489 C 100.025 216.721 99.082 217.27 98.023 217.27 Z  M 107.516 209.823 L 102.235 209.823 L 102.235 210.215 L 107.516 210.215 L 107.516 209.823 Z  M 107.16 213.552 L 102.235 213.552 L 102.235 213.933 L 107.16 213.933 L 107.16 213.552 Z  M 102.235 217.27 L 102.235 217.662 L 107.585 217.662 L 107.585 217.27 L 102.235 217.27 Z  M 111.739 215.064 L 114.754 209.823 L 114.294 209.823 L 111.544 214.605 L 108.782 209.823 L 108.333 209.823 L 111.348 215.064 L 111.739 215.064 Z  M 111.348 217.662 L 111.739 217.662 L 111.739 216.296 L 111.348 216.296 L 111.348 217.662 Z  M 119.403 209.756 C 117.159 209.756 115.502 211.548 115.502 213.754 C 115.502 215.949 117.159 217.74 119.403 217.74 C 121.658 217.74 123.315 215.949 123.315 213.754 C 123.315 211.548 121.658 209.756 119.403 209.756 Z  M 119.403 217.36 C 117.378 217.36 115.939 215.736 115.939 213.754 C 115.939 211.76 117.378 210.148 119.403 210.148 C 121.44 210.148 122.878 211.76 122.878 213.754 C 122.878 215.736 121.44 217.36 119.403 217.36 Z  M 119.403 213.306 C 119.15 213.306 118.943 213.507 118.943 213.754 C 118.943 214 119.15 214.202 119.403 214.202 C 119.656 214.202 119.863 214 119.863 213.754 C 119.863 213.507 119.656 213.306 119.403 213.306 Z  M 130.829 216.721 L 125.191 209.745 L 125.099 209.745 L 125.099 217.662 L 125.502 217.662 L 125.502 210.775 L 131.129 217.74 L 131.232 217.74 L 131.232 209.823 L 130.829 209.823 L 130.829 216.721 Z  M 135.662 209.823 C 135.467 209.823 133.418 209.823 133.418 209.823 L 133.418 210.204 C 133.418 210.204 135.352 210.204 135.662 210.204 C 137.814 210.204 139.425 211.469 139.425 213.743 C 139.425 216.005 137.768 217.27 135.662 217.27 C 135.49 217.27 134.42 217.27 133.821 217.27 L 133.821 214.19 L 133.418 214.19 L 133.418 217.662 C 133.418 217.662 135.444 217.662 135.662 217.662 C 138.09 217.662 139.897 216.262 139.897 213.743 C 139.897 211.212 138.079 209.823 135.662 209.823 Z " fill="rgb(255,255,255)"/><path d=" M 150.688 107.447 Q 142.236 127.028 150.688 133.997 L 150.688 107.447 L 150.688 107.447 L 150.688 107.447 L 150.688 107.447 Z  M 150.688 107.447 Q 159.14 127.028 150.688 133.997 L 150.688 107.447 L 150.688 107.447 L 150.688 107.447 L 150.688 107.447 Z  M 150.759 134.573 Q 146.223 130.509 146.387 127.973 Q 141.353 130.409 141.411 137.009 Q 144.17 129.81 150.759 134.573 L 150.759 134.573 L 150.759 134.573 Z  M 150.759 134.573 Q 155.296 130.509 155.132 127.973 Q 160.166 130.409 160.108 137.009 Q 157.349 129.81 150.759 134.573 L 150.759 134.573 Z  M 148.573 133.838 L 149.628 136.374 L 151.966 136.374 L 152.871 133.838 Q 150.848 135.442 148.573 133.838 Z " fill-rule="evenodd" fill="rgb(255,255,255)"/></g></svg>
